<?xml version="1.0" standalone="no"?>
<!DOCTYPE svg PUBLIC "-//W3C//DTD SVG 20010904//EN"
 "http://www.w3.org/TR/2001/REC-SVG-20010904/DTD/svg10.dtd">
<svg version="1.0" xmlns="http://www.w3.org/2000/svg"
 width="700.000000pt" height="700.000000pt" viewBox="0 0 700.000000 700.000000"
 preserveAspectRatio="xMidYMid meet">
<metadata>
Created by potrace 1.11, written by Peter Selinger 2001-2013
</metadata>
<g transform="translate(0.000000,700.000000) scale(0.100000,-0.100000)"
fill="#000000" stroke="none">
<path d="M1295 5943 c-142 -32 -218 -63 -303 -125 -101 -75 -161 -146 -216
-255 -77 -153 -71 22 -71 -2068 0 -1792 1 -1872 19 -1929 83 -262 263 -435
519 -496 80 -20 123 -20 2277 -17 1207 1 2211 6 2230 11 64 14 164 58 230 101
139 90 234 216 294 389 21 61 21 64 23 1916 2 1602 1 1864 -12 1920 -63 279
-269 486 -543 545 -57 12 -381 14 -2247 13 -1199 0 -2189 -2 -2200 -5z m1705
-1793 c696 -1394 845 -1690 850 -1690 3 0 95 180 205 401 110 220 208 415 217
432 19 34 145 289 185 372 13 28 33 66 44 85 11 19 25 47 30 63 6 15 14 27 18
27 4 0 33 -53 65 -117 32 -65 82 -165 111 -223 29 -58 238 -475 464 -927 l411
-823 -2100 0 -2100 0 206 412 c113 227 209 418 213 423 4 6 20 39 36 75 16 36
32 70 36 75 7 11 855 1705 884 1768 9 20 20 37 24 37 3 0 94 -176 201 -390z"/>
</g>
</svg>
